<svg width="250" height="65" fill="none" xmlns="http://www.w3.org/2000/svg"><path stroke="#000" d="M.5.5h249v64H.5z"/><path d="m31.594 19.848-3.705-.488v-2.034h11.713v2.034l-3.705.488v25.304l3.705.448v1.953H27.929v-1.994l3.665-.407V19.848Zm15.391 0-3.188-.488v-2.034h7.41l13.267 19.852 2.231 4.313V19.848l-3.466-.488v-2.034h9.402v2.034l-3.187.488v27.705h-3.147L52.761 27.252l-3.067-5.37v23.27l3.785.407v1.994h-9.681v-1.994l3.187-.447V19.848ZM85.184 48c-1.38 0-2.616-.122-3.705-.366a45.426 45.426 0 0 1-3.585-.977c-.797-.298-1.395-.46-1.793-.488l.319-7.363h2.55l.677 5.288c.451.434 1.181.828 2.19 1.18 1.037.326 2.165.489 3.387.489 2.019 0 3.546-.462 4.582-1.384 1.062-.922 1.593-2.197 1.593-3.824 0-1.058-.292-1.966-.876-2.726-.558-.759-1.315-1.41-2.271-1.952-.93-.543-2.218-1.18-3.865-1.912-1.487-.679-2.788-1.37-3.904-2.075-1.089-.705-2.045-1.641-2.868-2.807-.797-1.194-1.195-2.618-1.195-4.272 0-1.492.385-2.82 1.155-3.987.797-1.193 1.925-2.129 3.386-2.807C82.45 17.34 84.175 17 86.141 17c1.221 0 2.297.095 3.226.285.957.19 2.032.447 3.227.773.532.19.983.312 1.355.366l-.24 6.835h-2.43l-.796-5.004c-.266-.272-.823-.53-1.673-.773-.824-.244-1.727-.366-2.71-.366-1.832 0-3.226.393-4.183 1.18-.93.786-1.394 1.925-1.394 3.417 0 1.084.279 1.993.837 2.725a8.077 8.077 0 0 0 2.151 1.872c.85.515 2.204 1.22 4.064 2.115 1.726.841 3.134 1.6 4.223 2.278a9.46 9.46 0 0 1 2.788 2.685c.797 1.085 1.196 2.387 1.196 3.906 0 1.437-.399 2.82-1.196 4.15-.77 1.328-1.965 2.427-3.585 3.295-1.594.84-3.533 1.261-5.817 1.261Zm17.321-28.152-3.108-.488v-2.034h5.299c.956 0 1.899-.041 2.828-.123a54.024 54.024 0 0 1 4.064-.162c3.851.027 6.574.76 8.167 2.197 1.594 1.437 2.391 3.607 2.391 6.509 0 2.17-.492 4.054-1.474 5.655-.983 1.6-2.351 2.82-4.104 3.661-1.726.84-3.718 1.261-5.976 1.261-.77 0-1.554-.013-2.35-.04a28.34 28.34 0 0 1-1.475-.123v8.95l5.458.448v1.994H99.198v-1.994l3.307-.407V19.848Zm4.262 14.076c.744.136 2.019.203 3.825.203 2.098 0 3.798-.65 5.1-1.953 1.328-1.301 1.992-3.43 1.992-6.387 0-2.332-.571-4-1.714-5.003-1.142-1.031-2.921-1.546-5.338-1.546-.85 0-1.753.054-2.709.162-.585.055-.97.082-1.156.082v14.442Zm22.248-14.076-3.706-.488v-2.034h11.713v2.034l-3.705.488v25.304l3.705.448v1.953h-11.673v-1.994l3.666-.407V19.848Zm12.044 25.712 3.307-.408V19.848l-3.108-.53v-1.992h5.219c.744 0 1.753-.055 3.028-.163 1.328-.109 2.364-.163 3.107-.163 3.905 0 6.68.65 8.327 1.953 1.673 1.274 2.51 3.295 2.51 6.061a9.357 9.357 0 0 1-1.594 5.29c-1.036 1.6-2.47 2.684-4.302 3.254.85.46 1.633 1.26 2.35 2.4.744 1.112 1.647 2.672 2.709 4.678.824 1.52 1.448 2.631 1.873 3.336.451.706.876 1.099 1.275 1.18l1.553.407v1.994h-5.498c-.424 0-.903-.462-1.434-1.384-.531-.949-1.235-2.4-2.111-4.353-.956-2.142-1.793-3.837-2.51-5.085-.691-1.275-1.381-2.088-2.072-2.441-2.842 0-4.528-.014-5.059-.04v10.902l3.944.407v1.994h-11.514v-1.994Zm12.31-13.467c1.7 0 3.042-.57 4.024-1.709.983-1.139 1.474-2.834 1.474-5.085 0-1.98-.504-3.485-1.514-4.515-.982-1.058-2.695-1.587-5.139-1.587-.85 0-1.7.054-2.55.163-.531.054-.876.08-1.035.08v12.613c.398.027 1.221.04 2.47.04h2.27Zm19.048-12.245-3.267-.488v-2.034h20.279l.557 6.305h-2.271l-1.155-3.946-9.88-.244v11.472l6.653-.122.558-3.376h2.191v9.357h-2.191l-.558-3.499-6.653-.122v12.123l11.235-.407 2.111-5.125 2.351.732-1.156 7.079H169.11v-1.994l3.307-.407V19.848Zm25.95 0-3.107-.488v-2.034h5.219c.823 0 2.005-.055 3.546-.163 1.54-.109 2.695-.163 3.466-.163 4.94 0 8.605 1.275 10.995 3.824 2.417 2.522 3.626 6.075 3.626 10.659 0 3.2-.624 6.048-1.873 8.543-1.221 2.468-2.948 4.394-5.179 5.777-2.231 1.383-4.794 2.075-7.689 2.075-.637 0-1.726-.054-3.267-.163-1.593-.108-2.789-.163-3.585-.163h-5.458V45.56l3.306-.407V19.848Zm4.223 25.426c.93.217 2.125.326 3.586.326h1.195c1.992-.027 3.745-.543 5.259-1.546 1.54-1.004 2.736-2.495 3.585-4.475.85-2.007 1.275-4.435 1.275-7.282 0-4.286-.916-7.54-2.749-9.764-1.806-2.224-4.541-3.336-8.207-3.336-.77 0-1.686.054-2.749.163a6.83 6.83 0 0 1-1.195.122v25.792Z" fill="#000"/></svg>